<svg width="355" height="355" viewBox="0 0 355 355" fill="none" xmlns="http://www.w3.org/2000/svg">
<g clip-path="url(#clip0_65_34)">
<path d="M305.63 249.52C293.16 249.52 282.1 244.69 274.05 236.24V247.3H248.51V105H275.26V153.58C283.1 145.94 293.76 141.51 305.63 141.51C332.78 141.51 354.91 164.84 354.91 195.61C354.91 226.38 332.79 249.51 305.63 249.51V249.52ZM301.81 166.05C287.13 166.05 275.26 179.32 275.26 195.82C275.26 212.32 287.13 224.98 301.81 224.98C316.49 224.98 328.36 212.31 328.36 195.82C328.36 179.33 316.49 166.05 301.81 166.05Z" fill="#0076F8"/>
<path d="M222.03 105H148.02V134.78H222.03V105Z" fill="#0076F8"/>
<path d="M222.03 161.26H0V191.04H222.03V161.26Z" fill="#0076F8"/>
<path d="M222.03 217.52H74.0098V247.12H222.03V217.52Z" fill="#0076F8"/>
</g>
<defs>
<clipPath id="clip0_65_34">
<rect width="355" height="145" fill="white" transform="translate(0 105)"/>
</clipPath>
</defs>
</svg>
