<svg width="1000" height="191" viewBox="0 0 1000 191" fill="none" xmlns="http://www.w3.org/2000/svg">
<g clip-path="url(#clip0_48_21)">
<path d="M305.63 144.52C293.16 144.52 282.1 139.69 274.05 131.24V142.3H248.51V0H275.26V48.58C283.1 40.94 293.76 36.51 305.63 36.51C332.78 36.51 354.91 59.84 354.91 90.61C354.91 121.38 332.79 144.51 305.63 144.51V144.52ZM301.81 61.05C287.13 61.05 275.26 74.32 275.26 90.82C275.26 107.32 287.13 119.98 301.81 119.98C316.49 119.98 328.36 107.31 328.36 90.82C328.36 74.33 316.49 61.05 301.81 61.05Z" fill="#0076F8"/>
<path d="M428.76 62.46C418.1 61.25 409.25 62.46 403.22 68.9C397.59 74.73 396.58 83.18 396.58 91.43V142.31H370.03V38.72H395.37V48.98C403.82 38.52 416.29 34.7 428.76 36.71V62.45V62.46Z" fill="#0076F8"/>
<path d="M646.78 142.3H620.23V81.7601C620.23 75.7301 618.42 61.2501 600.92 61.2501C589.05 61.2501 580.81 70.1001 580.81 81.7601V142.3H554.26V38.7201H579.6V48.7801C586.24 40.9401 595.29 36.1101 606.35 36.1101C630.69 36.1101 646.78 54.4101 646.78 81.7701V142.31V142.3Z" fill="#0076F8"/>
<path d="M716.91 142.1C686.54 145.32 670.45 127.02 670.45 98.6599V62.2599H657.98V38.7299H670.45V12.3799H697V38.7299H715.7V62.2599H697V98.8699C697 113.35 703.64 118.78 716.91 117.98V142.11V142.1Z" fill="#0076F8"/>
<path d="M823.21 142.3H797.87V132.85C791.43 140.29 782.38 144.72 771.52 144.72C746.98 144.72 730.69 126.42 730.69 99.27V38.72H757.24V99.26C757.24 105.09 759.25 119.57 776.55 119.57C788.42 119.57 796.66 110.72 796.66 99.26V38.72H823.21V142.3Z" fill="#0076F8"/>
<path d="M1000 142.3H973.45V81.7601C973.45 75.7301 971.44 61.2501 954.14 61.2501C942.27 61.2501 934.03 70.1001 934.03 81.7601V142.3H907.28V81.7601C907.28 75.7301 905.47 61.2501 887.97 61.2501C876.3 61.2501 868.06 70.1001 868.06 81.7601V142.3H841.31V38.7201H866.85V48.7801C873.29 40.9401 882.34 36.1101 893.6 36.1101C906.47 36.1101 917.33 41.5401 924.57 50.7901C932.01 41.7401 942.87 36.1101 956.15 36.1101C983.91 36.1101 1000 54.6101 1000 81.7701V142.31V142.3Z" fill="#0076F8"/>
<path d="M515.98 38.72L490.1 110L465.9 38.72H437.75L477.75 144.01L461.02 190.08H487.78L544.34 38.72H515.98Z" fill="#0076F8"/>
<path d="M222.03 0H148.02V29.78H222.03V0Z" fill="#0076F8"/>
<path d="M222.03 56.26H0V86.04H222.03V56.26Z" fill="#0076F8"/>
<path d="M222.03 112.52H74.0098V142.12H222.03V112.52Z" fill="#0076F8"/>
</g>
<defs>
<clipPath id="clip0_48_21">
<rect width="1000" height="190.08" fill="white"/>
</clipPath>
</defs>
</svg>
